<?xml version="1.0" encoding="UTF-8"?>
<svg width="19px" height="19px" viewBox="0 0 19 19" version="1.1" xmlns="http://www.w3.org/2000/svg" xmlns:xlink="http://www.w3.org/1999/xlink">
    <!-- Generator: Sketch 52.6 (67491) - http://www.bohemiancoding.com/sketch -->
    <title></title>
    <desc>Created with Sketch.</desc>
    <g id="Page-1" stroke="none" stroke-width="1" fill="none" fill-rule="evenodd">
        <g id="Buzon-digital-Copy-2" transform="translate(-576.000000, -552.000000)" fill="#86888C">
            <g id="input-nombre-copy-2" transform="translate(560.000000, 537.000000)">
                <path d="M22.4411867,23.9478374 C22.7503217,23.9478374 23.017298,24.0532227 23.2421235,24.2639966 C23.4669489,24.4747705 23.57936,24.7347211 23.57936,25.0438561 C23.57936,25.3529912 23.4669489,25.6199674 23.2421235,25.8447929 C23.017298,26.0696184 22.7503217,26.1820294 22.4411867,26.1820294 C22.1320517,26.1820294 21.8721011,26.0696184 21.6613272,25.8447929 C21.4505533,25.6199674 21.345168,25.3529912 21.345168,25.0438561 C21.345168,24.7347211 21.4505533,24.4747705 21.6613272,24.2639966 C21.8721011,24.0532227 22.1320517,23.9478374 22.4411867,23.9478374 Z M27.8369712,23.9478374 C28.1461063,23.9478374 28.4130825,24.0532227 28.637908,24.2639966 C28.8627335,24.4747705 28.9751445,24.7347211 28.9751445,25.0438561 C28.9751445,25.3529912 28.8627335,25.6199674 28.637908,25.8447929 C28.4130825,26.0696184 28.1461063,26.1820294 27.8369712,26.1820294 C27.5278362,26.1820294 27.2678856,26.0696184 27.0571118,25.8447929 C26.8463379,25.6199674 26.7409525,25.3529912 26.7409525,25.0438561 C26.7409525,24.7347211 26.8463379,24.4747705 27.0571118,24.2639966 C27.2678856,24.0532227 27.5278362,23.9478374 27.8369712,23.9478374 Z M25.1601562,15.1796875 C27.6472881,15.1796875 29.7690468,16.0578989 31.5254958,17.8143479 C33.2819449,19.570797 34.1601562,21.6855299 34.1601562,24.1586102 C34.1601562,26.6316905 33.2819449,28.7464234 31.5254958,30.5028725 C29.7690468,32.2593216 27.6472881,33.1375329 25.1601562,33.1375329 C22.6730244,33.1375329 20.5512657,32.2593216 18.7948167,30.5028725 C17.0383676,28.7464234 16.1601562,26.6316905 16.1601562,24.1586102 C16.1601562,21.6855299 17.0383676,19.570797 18.7948167,17.8143479 C20.5512657,16.0578989 22.6730244,15.1796875 25.1601562,15.1796875 Z M25.1601562,31.3670411 C27.1414308,31.3670411 28.8346223,30.664472 30.2397815,29.2593128 C31.6449408,27.8541535 32.3475099,26.1539364 32.3475099,24.1586102 C32.3475099,23.4841338 32.2491502,22.8096675 32.0524279,22.135191 C31.3779515,22.2757069 30.7034851,22.3459638 30.0290087,22.3459638 C28.5395399,22.3459638 27.1484531,22.0087307 25.8557066,21.3342542 C24.5629601,20.6597778 23.5091065,19.7323866 22.6941141,18.5520528 C21.766709,20.8003076 20.2070056,22.4162165 18.0149572,23.399828 C17.986854,23.6808599 17.9728026,23.9337847 17.9728026,24.1586102 C17.9728026,26.1539364 18.6753717,27.8541535 20.080531,29.2593128 C21.4856902,30.664472 23.1788817,31.3670411 25.1601562,31.3670411 Z" id=""></path>
            </g>
        </g>
    </g>
</svg>