<?xml version="1.0" encoding="UTF-8"?>
<svg width="16px" height="9px" viewBox="0 0 16 9" version="1.1" xmlns="http://www.w3.org/2000/svg" xmlns:xlink="http://www.w3.org/1999/xlink">
    <!-- Generator: Sketch 52.6 (67491) - http://www.bohemiancoding.com/sketch -->
    <title></title>
    <desc>Created with Sketch.</desc>
    <g id="Page-1" stroke="none" stroke-width="1" fill="none" fill-rule="evenodd">
        <g id="Buzon-digital-Copy-2" transform="translate(-576.000000, -621.000000)" fill="#86888C">
            <g id="btn-copy-11" transform="translate(560.000000, 601.000000)">
                <path d="M24.4946695,22.8997868 L32,22.8997868 L32,25.8336887 L30.5671642,25.8336887 L30.5671642,28.7334755 L27.6332623,28.7334755 L27.6332623,25.8336887 L24.4946695,25.8336887 C24.17626,26.6751997 23.6417948,27.3688672 22.891258,27.9147122 C22.1407212,28.4605571 21.2992229,28.7334755 20.3667377,28.7334755 C19.1613301,28.7334755 18.1322004,28.3070405 17.2793177,27.4541578 C16.426435,26.6012751 16,25.5721453 16,24.3667377 C16,23.1613301 16.426435,22.1322004 17.2793177,21.2793177 C18.1322004,20.426435 19.1613301,20 20.3667377,20 C21.2992229,20 22.1407212,20.2729184 22.891258,20.8187633 C23.6417948,21.3646083 24.17626,22.0582758 24.4946695,22.8997868 Z M20.3667377,25.8336887 C20.7761214,25.8336887 21.1229552,25.6915437 21.4072495,25.4072495 C21.6915437,25.1229552 21.8336887,24.7761214 21.8336887,24.3667377 C21.8336887,23.957354 21.6915437,23.6105203 21.4072495,23.326226 C21.1229552,23.0419318 20.7761214,22.8997868 20.3667377,22.8997868 C19.957354,22.8997868 19.6105203,23.0419318 19.326226,23.326226 C19.0419318,23.6105203 18.8997868,23.957354 18.8997868,24.3667377 C18.8997868,24.7761214 19.0419318,25.1229552 19.326226,25.4072495 C19.6105203,25.6915437 19.957354,25.8336887 20.3667377,25.8336887 Z" id=""></path>
            </g>
        </g>
    </g>
</svg>