<svg xmlns="http://www.w3.org/2000/svg" width="251.859" height="251.864" viewBox="0 0 251.859 251.864">
  <path id="Fill_1" data-name="Fill 1" d="M251.859,125.932c0,10.07-27.731,16.37-30.21,25.658-2.571,9.613,18.22,28.91,13.352,37.323-4.944,8.541-32.09.142-39.02,7.072s1.468,34.077-7.067,39.015c-8.414,4.872-27.716-15.923-37.328-13.352-9.288,2.484-15.583,30.215-25.658,30.215s-16.365-27.731-25.653-30.215C90.661,219.083,71.36,239.874,62.946,235c-8.536-4.939-.142-32.09-7.067-39.015s-34.082,1.468-39.02-7.072C11.991,180.5,32.781,161.2,30.21,151.59,27.726,142.3,0,136,0,125.932s27.726-16.365,30.21-25.658c2.571-9.608-18.22-28.91-13.352-37.323,4.939-8.541,32.09-.142,39.02-7.072S54.41,21.8,62.946,16.863c8.414-4.872,27.716,15.923,37.328,13.352C109.562,27.731,115.857,0,125.927,0s16.37,27.731,25.658,30.215c9.613,2.571,28.915-18.225,37.328-13.352,8.536,4.939.142,32.09,7.067,39.015S230.058,54.41,235,62.951c4.867,8.414-15.923,27.716-13.352,37.323,2.479,9.293,30.21,15.588,30.21,25.658" fill="#00a9e0"/>
</svg>
