<svg xmlns="http://www.w3.org/2000/svg" width="150.668" height="117.85" viewBox="0 0 150.668 117.85">
  <g id="check" transform="translate(0 -0.342)">
    <g id="OkMiMovistar---M" transform="translate(0 0.342)">
      <g id="Group-10" transform="translate(0 0)">
        <path id="Fill-3" d="M83.952,9.512c-2.364,5.1-2.437,7.938,1.317,9.671s5.879-.163,8.244-5.258S95.949,5.985,92.2,4.254s-5.879.161-8.244,5.258" transform="translate(24.557 0.638)" fill="#499e00" fill-rule="evenodd"/>
        <path id="Fill-7" d="M16.537,25c-3.13.036-4.568,1.723-4.536,4.608s1.508,4.536,4.64,4.5,4.569-1.72,4.537-4.6-1.508-4.54-4.64-4.5" transform="translate(3.581 7.016)" fill="#5bc500" fill-rule="evenodd"/>
        <path id="Fill-9" d="M36.868,9.834C32.4,1.816,29.955,1.182,27.294,2.656s-3.412,3.881,1.057,11.9,6.91,8.653,9.573,7.176,3.412-3.88-1.057-11.9" transform="translate(7.504 0.16)" fill="#ff374a" fill-rule="evenodd"/>
        <path id="Fill-17" d="M16.99,54.782,8.734,56.318c-4.591.238-8.485-2.9-8.7-7.01S.458,40.237,5.052,40L16.1,41.017c4.593-.237,8.489,2.9,8.7,7.014s-3.218,6.515-7.809,6.751" transform="translate(0 11.492)" fill="#00a9e0" fill-rule="evenodd"/>
        <path id="Fill-19" d="M.824,6.093,2.318,2.544C3.3.665,4.961-.408,6.02.146A2.3,2.3,0,0,1,7.18,3.6L4.422,7.874c-.983,1.879-2.642,2.952-3.7,2.4s-.876-2.3.106-4.18" transform="matrix(0.485, 0.875, -0.875, 0.485, 145.196, 55.508)" fill="#00a9e0" fill-rule="evenodd"/>
        <path id="Fill-21" d="M54.918,8l-.29-3.839C54.647,2.04,55.633.332,56.83.342a2.308,2.308,0,0,1,2.611,2.551l-.505,5.056c-.019,2.119-1,3.828-2.2,3.818S54.9,10.114,54.918,8" transform="translate(16.301 -0.342)" fill="#5bc500" fill-rule="evenodd"/>
        <path id="Fill-21-2" data-name="Fill-21" d="M116.488,28.963a1.309,1.309,0,0,0-.509,1l-.122,3.708a1.313,1.313,0,0,1-2.053,1.041l-3.067-2.089a1.316,1.316,0,0,0-1.1-.175l-3.564,1.03a1.314,1.314,0,0,1-1.626-1.631l1.04-3.562a1.316,1.316,0,0,0-.174-1.1L103.227,24.1a1.314,1.314,0,0,1,1.048-2.05l3.708-.113a1.315,1.315,0,0,0,1-.505l2.279-2.929a1.314,1.314,0,0,1,2.274.364l1.253,3.493a1.31,1.31,0,0,0,.789.792l3.489,1.262a1.314,1.314,0,0,1,.357,2.275Z" transform="translate(30.736 4.927)" fill="#ffc55f" fill-rule="evenodd"/>
        <path id="Combined-Shape" d="M68.9,23c25.9,0,40.9,12.976,40.9,40.9s-15,40.9-40.9,40.9S28,91.823,28,63.9,43,23,68.9,23ZM54.53,85.054a4.722,4.722,0,0,0,7,.029L94.347,48.768a4.5,4.5,0,0,0-.4-6.443,4.726,4.726,0,0,0-6.576.392L58.139,75.211,47.858,63.635a4.725,4.725,0,0,0-6.572-.447,4.5,4.5,0,0,0-.456,6.439Z" transform="translate(8.355 6.419)" fill="#5bc500" fill-rule="evenodd"/>
        <g id="Group-9" transform="matrix(0.966, 0.259, -0.259, 0.966, 108.525, 72.293)">
          <g id="Group-4" transform="translate(0 0)">
            <path id="Fill-55" d="M37.2,18.6A18.6,18.6,0,1,1,18.6,0,18.6,18.6,0,0,1,37.2,18.6" transform="translate(0)" fill="#ffdd67" fill-rule="evenodd"/>
            <path id="Fill-57" d="M21.079,2.113A1.288,1.288,0,0,0,19.95.832,50.177,50.177,0,0,0,10.539,0h0A50.252,50.252,0,0,0,1.13.832,1.287,1.287,0,0,0,0,2.113c0,4.508,3.478,9.046,10.539,9.046h0c7.061,0,10.54-4.538,10.54-9.046" transform="translate(8.059 20.236)" fill="#664e27" fill-rule="evenodd"/>
            <path id="Fill-59" d="M9.265,4.754C8.112,1.585,6.376,0,4.64,0S1.166,1.586.014,4.754c-.114.32.48.895.778.582A5.114,5.114,0,0,1,4.64,3.688,5.115,5.115,0,0,1,8.488,5.336c.3.313.891-.262.777-.582" transform="translate(7.18 10.654)" fill="#664e27" fill-rule="evenodd"/>
            <path id="Fill-61" d="M9.265,4.754C8.113,1.585,6.377,0,4.64,0S1.167,1.586.014,4.754c-.115.32.48.895.777.582A5.115,5.115,0,0,1,4.64,3.688,5.115,5.115,0,0,1,8.488,5.336c.3.313.891-.262.777-.582" transform="translate(20.737 10.654)" fill="#664e27" fill-rule="evenodd"/>
            <path id="Fill-63" d="M16.547.628A48.6,48.6,0,0,0,8.679,0,48.59,48.59,0,0,0,.812.629c-.8.135-.851.46-.8.921.033.273.085.6.164.962.088.4.163.581.784.506,1.191-.142,14.239-.142,15.429,0,.623.074.7-.109.785-.506.079-.358.131-.688.164-.962.054-.462.006-.787-.8-.922" transform="translate(9.919 21.866)" fill="#fff" fill-rule="evenodd"/>
            <path id="Fill-65" d="M37.2,18.6A18.6,18.6,0,1,1,18.6,0,18.6,18.6,0,0,1,37.2,18.6" transform="translate(0)" fill="#ffdd67" fill-rule="evenodd"/>
            <path id="Fill-67" d="M21.079,2.113A1.288,1.288,0,0,0,19.95.832,50.177,50.177,0,0,0,10.539,0h0A50.252,50.252,0,0,0,1.13.832,1.287,1.287,0,0,0,0,2.113c0,4.508,3.478,9.046,10.539,9.046h0c7.061,0,10.54-4.538,10.54-9.046" transform="translate(8.059 20.236)" fill="#664e27" fill-rule="evenodd"/>
            <path id="Fill-69" d="M9.265,4.754C8.112,1.585,6.376,0,4.64,0S1.166,1.586.014,4.754c-.114.32.48.895.778.582A5.114,5.114,0,0,1,4.64,3.688,5.115,5.115,0,0,1,8.488,5.336c.3.313.891-.262.777-.582" transform="translate(7.18 10.654)" fill="#664e27" fill-rule="evenodd"/>
            <path id="Fill-71" d="M9.265,4.754C8.113,1.585,6.377,0,4.64,0S1.167,1.586.014,4.754c-.115.32.48.895.777.582A5.115,5.115,0,0,1,4.64,3.688,5.115,5.115,0,0,1,8.488,5.336c.3.313.891-.262.777-.582" transform="translate(20.737 10.654)" fill="#664e27" fill-rule="evenodd"/>
            <path id="Fill-73" d="M16.547.628A48.6,48.6,0,0,0,8.679,0,48.59,48.59,0,0,0,.812.629c-.8.135-.851.46-.8.921.033.273.085.6.164.962.088.4.158.506.784.506H16.394c.627,0,.7-.109.785-.506.079-.358.131-.688.164-.962.054-.462.006-.787-.8-.922" transform="translate(9.919 21.866)" fill="#fff" fill-rule="evenodd"/>
          </g>
        </g>
      </g>
    </g>
  </g>
</svg>
