<svg xmlns="http://www.w3.org/2000/svg" width="36.473" height="33" viewBox="0 0 36.473 33">
  <g id="cuenta-al-dia" transform="translate(0 0)">
    <path id="XMLID_8_" d="M27.386,18.043H11.451a1.023,1.023,0,0,1-.951-.951c0-.595.3-.892.951-.892H27.386c.654,0,.951.3.951.892a.955.955,0,0,1-.3.654A.767.767,0,0,1,27.386,18.043Z" transform="translate(-5.03 -9.005)" fill="#5bc500"/>
    <g id="XMLID_7_" transform="translate(0 0)">
      <g id="XMLID_12_">
        <path id="XMLID_78_" d="M36.262,15.219A5.3,5.3,0,0,0,33.23,14.03a6.633,6.633,0,0,0-3.211.654V10.522a6.65,6.65,0,0,0-1.665-4.7A6.283,6.283,0,0,0,23.716,4.1H7.6A6.72,6.72,0,0,0,2.965,5.884a6.55,6.55,0,0,0-1.665,4.7V30.857a6.3,6.3,0,0,0,1.546,4.519,6.107,6.107,0,0,0,4.7,1.724H23.716a6.15,6.15,0,0,0,4.7-1.724,5.777,5.777,0,0,0,1.427-2.735c.059,0,.059-.059.119-.059a6.878,6.878,0,0,0,1.07-1.011h0A30.866,30.866,0,0,0,34.6,27.111a19.916,19.916,0,0,0,2.914-6.481C38.105,18.251,37.689,16.408,36.262,15.219Zm-12.546,20.1H7.6c-2.914,0-4.4-1.486-4.4-4.4V10.581a4.888,4.888,0,0,1,1.011-3.27,4.349,4.349,0,0,1,3.33-1.249H23.716a4.018,4.018,0,0,1,3.33,1.249,4.611,4.611,0,0,1,1.07,3.27v5.173H28A2.788,2.788,0,0,0,27.4,15.4c-.3-.178-.535-.3-.714-.416A6.781,6.781,0,0,0,23,14.089a4.921,4.921,0,0,0-3.032,1.189A4.438,4.438,0,0,0,18.722,17h-11c-.654,0-.951.3-.951.892a.826.826,0,0,0,.951.951H18.484a10.553,10.553,0,0,0,.238,1.784,14,14,0,0,0,.654,2.081H7.722c-.654,0-.951.3-.951.892a.826.826,0,0,0,.951.951H20.208a26.72,26.72,0,0,0,1.427,2.5c.238.416.535.773.773,1.189H7.722c-.654,0-.951.3-.951.892a.826.826,0,0,0,.951.951H23.954c.416.476.832.951,1.308,1.427s.832.773,1.07,1.011a6.091,6.091,0,0,0,1.249.595H27.7C27.105,34.6,25.738,35.316,23.716,35.316Zm4.4-11.119H24.905a3.011,3.011,0,0,0,3.211,2.735,4.92,4.92,0,0,0,1.9-.476A2.665,2.665,0,0,0,31.446,24.2m-3.389,7.908h-.178a1.428,1.428,0,0,1-.892-.357c-.178-.119-.476-.416-.951-.832-.476-.476-.951-1.011-1.427-1.546l-.773-1.011c-.476-.595-.832-1.189-1.249-1.784-.416-.654-.773-1.308-1.13-1.9,0,0-.773-1.546-.892-1.9a18.452,18.452,0,0,1-.773-2.378,7.264,7.264,0,0,1-.178-1.546A4.809,4.809,0,0,1,20.089,17a2.633,2.633,0,0,1,.714-.892,3.732,3.732,0,0,1,2.378-.892,5.336,5.336,0,0,1,3.092.773q.8.446,1.249.714a1.583,1.583,0,0,0,.714.178,3.253,3.253,0,0,0,1.546-.595l.357-.3.059-.059a5.228,5.228,0,0,1,3.092-.773,3.867,3.867,0,0,1,2.378.892,2.966,2.966,0,0,1,1.011,1.784,5.118,5.118,0,0,1-.059,2.5,20.831,20.831,0,0,1-2.795,6.184,26.318,26.318,0,0,1-3.449,4.341h0l-.238.238C29.008,32.4,28.057,32.105,28.057,32.105Z" transform="translate(-1.3 -4.1)" fill="#5bc500"/>
      </g>
    </g>
    <circle id="XMLID_19_" cx="0.773" cy="0.773" r="0.773" transform="translate(23.368 16.589)" fill="#5bc500"/>
    <circle id="XMLID_21_" cx="0.773" cy="0.773" r="0.773" transform="translate(28.719 16.589)" fill="#5bc500"/>
  </g>
</svg>
