<svg xmlns="http://www.w3.org/2000/svg" width="212.866" height="121.672" viewBox="0 0 212.866 121.672">
  <g id="Group_5" data-name="Group 5" transform="translate(-616 -360.063)">
    <g id="identity" transform="translate(616 358.462)">
      <g id="Group_14" data-name="Group 14" transform="translate(0 0)">
        <path id="Combined_Shape" data-name="Combined Shape" d="M57.872,96.363H40.343a15.613,15.613,0,0,0,.348-3.343c.073-7.137-2.911-10.836-19.424-11.249-.23,0-.469.006-.712.006-.265,0-.534,0-.8-.007-.343-.006-.731-.017-1.091-.031h-.292c-.574,0-.841-.007-.9-.013-1.065.105-2.231.156-3.565.156-4.266,0-7.006-.514-8.623-1.617C3.921,79.33,3.336,78,3.336,75.8A15.681,15.681,0,0,1,3.7,72.5a13.134,13.134,0,0,1,1.4-3.745A8.824,8.824,0,0,1,8,65.651a9.225,9.225,0,0,1,4.824-1.367.378.378,0,0,0,.107-.026.472.472,0,0,1,.09-.025.01.01,0,0,0-.007.009,4.336,4.336,0,0,0,1.369.723,10.092,10.092,0,0,0,3.538.735,4.822,4.822,0,0,0,3.7-1.486c1.145-1.238,1.747-3.239,1.792-5.949.016-.977.082-1.888.145-2.768.191-2.643.342-4.731-1.057-6.259A7.984,7.984,0,0,0,18.3,47.2a45.015,45.015,0,0,0-8.937-.83L.412,46.086c-.016.024-.031.048-.046.073C.188,27.737,0,8.547,0,8.356A36.528,36.528,0,0,1,23.366,0,38.468,38.468,0,0,1,36.311,2.245,36.5,36.5,0,0,1,47.344,8.451a30.052,30.052,0,0,1,7.678,9.37A25.355,25.355,0,0,1,57.9,29.559c0,23.138-.027,62.366-.03,66.763v.041Z" transform="translate(57.033 22.034)" fill="#6ae0f3"/>
        <path id="Fill_33_Copy" data-name="Fill 33 Copy" d="M95.8,4.7c-9-8.925-68.877-2.4-68.877-2.4C12.206,2.516,9.413,5.675,9.516,11.141c.168,8.911,14.815,8.4,14.255,8.431,7,.152,8.337,1.826,8.337,4.542,0,2.837-1.448,4.541-9.091,4.541-1.165,0-2.17-.044-3.064-.12-.049,0-.319.01-1.021.008-.293.01-.623.018-.937.023-.449.006-.891.006-1.3,0C2.566,28.872-.062,32.015,0,37.4c.057,4.823,2.3,8.263,12.931,8.263l45.2.88S104.8,13.627,95.8,4.7Z" transform="translate(0 21.468)" fill="#6ae0f3"/>
        <path id="Path_11" data-name="Path 11" d="M0,0" transform="translate(76.324 99.124)" fill="none" stroke="#979797" stroke-miterlimit="10" stroke-width="1.3"/>
        <path id="Path_13" data-name="Path 13" d="M0,0" transform="translate(83.872 26.223)" fill="none" stroke="#979797" stroke-miterlimit="10" stroke-width="1.3"/>
        <g id="Group_4" data-name="Group 4" transform="translate(60.925 7.819) rotate(-14)">
          <path id="Fill_1" data-name="Fill 1" d="M4.081,3.227C2.868.087,2.014-.267.972.134S-.464,1.371.75,4.511,2.818,8,3.86,7.6,5.3,6.367,4.081,3.227" transform="translate(0 4.355)" fill="#3ad5f1"/>
          <path id="Fill_3" data-name="Fill 3" d="M1.489,1.6C-.1,3.271-.51,4.364.717,5.533s2.3.713,3.895-.953,2-2.76.773-3.929-2.3-.714-3.895.953" transform="translate(26.22 14.153)" fill="#ff7c9a"/>
          <path id="Fill_6" data-name="Fill 6" d="M4.717.266C2.425-.486.958.388.263,2.5S.229,6.186,2.521,6.937,6.28,6.815,6.975,4.7,7.009,1.018,4.717.266" transform="translate(13.11 4.355)" fill="#5ad73c"/>
          <path id="Fill_8" data-name="Fill 8" d="M2.51.141A1.671,1.671,0,0,0,.14,1.331a1.666,1.666,0,0,0,1.2,2.36A1.671,1.671,0,0,0,3.712,2.5,1.668,1.668,0,0,0,2.51.141" transform="translate(21.85 0)" fill="#94e37a"/>
        </g>
        <ellipse id="Oval_2" data-name="Oval 2" cx="1.092" cy="1.089" rx="1.092" ry="1.089" transform="translate(39.42 73.986)" fill="rgba(74,74,74,0.36)"/>
        <path id="Path_11-2" data-name="Path 11" d="M0,0" transform="translate(76.324 99.124)" fill="none" stroke="#979797" stroke-miterlimit="10" stroke-width="1.3"/>
        <path id="Path_13-2" data-name="Path 13" d="M0,0" transform="translate(83.872 26.223)" fill="none" stroke="#979797" stroke-miterlimit="10" stroke-width="1.3"/>
        <path id="Fill_25_Copy" data-name="Fill 25 Copy" d="M39.778,0C48.4.092,49.162,3.36,49.162,6.681c0,2.429-1.415,3.485-7.478,4.055-3.638.341-31.148,1.939-37.9-.427C1.451,9.491-.075,8.245,0,6.372.143,2.967,28.653-.112,39.778,0Z" transform="translate(30.194 111.693)" fill="#92f0f9"/>
        <ellipse id="Oval_2-2" data-name="Oval 2" cx="2.185" cy="2.177" rx="2.185" ry="2.177" transform="translate(48.646 94.096)" fill="rgba(74,74,74,0.36)"/>
        <g id="Group_7" data-name="Group 7" transform="translate(114.905 29.575)">
          <path id="Fill_11_Copy_3" data-name="Fill 11 Copy 3" d="M53.91,13.886H52.085c-1.851,0-2.881,1.619-2.881,3.611,0,2.013,1.03,4.323,2.881,4.323h14.9a5.81,5.81,0,0,1,5.567,5.962,5.79,5.79,0,0,1-5.567,5.94h-1.7c-1.85,0-3.365.488-3.365,2.48s1.514,2.48,3.365,2.48H93.633c3.136.086,4.329,4.113,4.329,7.063,0,3.318-.788,6.236-4.025,6.208H0V.051C4.318.051,52.969,0,52.969,0c3.062,0,5.568,3.693,5.568,6.987C58.537,9.937,56.529,13.886,53.91,13.886Z" transform="translate(0 36.869)" fill="#92f0f9"/>
          <ellipse id="Oval_2-3" data-name="Oval 2" cx="2.185" cy="2.177" rx="2.185" ry="2.177" transform="translate(48.646 24.3)" fill="rgba(74,74,74,0.36)"/>
          <ellipse id="Oval_2_Copy_4" data-name="Oval 2 Copy 4" cx="1.092" cy="1.089" rx="1.092" ry="1.089" transform="translate(5.871 0)" fill="rgba(74,74,74,0.36)"/>
          <ellipse id="Oval_2-4" data-name="Oval 2" cx="2.185" cy="2.177" rx="2.185" ry="2.177" transform="translate(10.065 5.866)" fill="rgba(74,74,74,0.36)"/>
          <ellipse id="Oval_2_Copy_4-2" data-name="Oval 2 Copy 4" cx="1.092" cy="1.089" rx="1.092" ry="1.089" transform="translate(64.582 49.438)" fill="rgba(74,74,74,0.36)"/>
          <ellipse id="Oval_2-5" data-name="Oval 2" cx="2.185" cy="2.177" rx="2.185" ry="2.177" transform="translate(78.001 65.359)" fill="rgba(74,74,74,0.36)"/>
          <g id="Group_34" data-name="Group 34" transform="translate(8.387 6.704)">
            <path id="Oval_3" data-name="Oval 3" d="M28.517,34.993a3.515,3.515,0,1,1-7.029,0V14.2a7.23,7.23,0,0,0-14.458,0V34.812a3.534,3.534,0,0,1-3.515,3.552A3.534,3.534,0,0,1,0,34.812V14.2a14.258,14.258,0,0,1,28.517,0Z" transform="translate(7.548)" fill="#adbdc0"/>
            <rect id="Rectangle_9" data-name="Rectangle 9" width="42.775" height="34.355" rx="7.8" transform="translate(0 33.518)" fill="#f9c86a"/>
            <path id="Fill_70" data-name="Fill 70" d="M0,.874A.818.818,0,0,1,.741,0h.2a.818.818,0,0,1,.741.874v1.6a.818.818,0,0,1-.741.874h-.2A.818.818,0,0,1,0,2.478Z" transform="translate(32.71 27.652)" fill="rgba(73,109,115,0.38)"/>
            <path id="Fill_70-2" data-name="Fill 70" d="M0,.91A.842.842,0,0,1,.741,0h.2a.841.841,0,0,1,.741.91V7.469a.841.841,0,0,1-.741.91h-.2A.842.842,0,0,1,0,7.469Z" transform="translate(32.71 16.759)" fill="rgba(73,109,115,0.38)"/>
            <path id="Fill_70-3" data-name="Fill 70" d="M0,.91A.842.842,0,0,1,.741,0h.2a.841.841,0,0,1,.741.91V7.469a.841.841,0,0,1-.741.91h-.2A.842.842,0,0,1,0,7.469Z" transform="translate(36.904 42.735)" fill="#fdf4e1"/>
            <path id="Fill_70-4" data-name="Fill 70" d="M0,1.092C0,.492.334,0,.741,0h.2c.408,0,.741.492.741,1.092v.329c0,.6-.333,1.092-.741,1.092h-.2C.334,2.514,0,2.022,0,1.421Z" transform="translate(36.904 38.545)" fill="#fdf4e1"/>
            <path id="Rectangle_9-2" data-name="Rectangle 9" d="M8.7,0s2.986,12.727,11.682,19.3,22.393,6.463,22.393,6.463a8.645,8.645,0,0,1-8.7,8.589H8.7A8.645,8.645,0,0,1,0,25.767V8.589A8.645,8.645,0,0,1,8.7,0Z" transform="translate(0 33.518)" fill="#ffb542"/>
            <path id="Rectangle_11" data-name="Rectangle 11" d="M1.917,1.306A1.6,1.6,0,0,1,3.487,0h.351A1.6,1.6,0,0,1,5.411,1.328L7.155,11.542a1.6,1.6,0,0,1-1.573,1.865H1.6A1.6,1.6,0,0,1,.026,11.52Z" transform="translate(18.208 45.249)" fill="#496d73"/>
          </g>
        </g>
        <ellipse id="Oval_2_Copy_4-3" data-name="Oval 2 Copy 4" cx="1.092" cy="1.089" rx="1.092" ry="1.089" transform="translate(42.775 94.096)" fill="rgba(74,74,74,0.36)"/>
      </g>
      <g id="Group_2" data-name="Group 2" transform="translate(44.826 15.955)">
        <g id="Group_4_Copy" data-name="Group 4 Copy" transform="translate(18.943 17.893)">
          <path id="Stroke_1" data-name="Stroke 1" d="M18.447,2.729a16.337,16.337,0,0,0-18.074,0,.905.905,0,0,0-.244,1.2.778.778,0,0,0,1.119.261,14.812,14.812,0,0,1,16.316,0,.778.778,0,0,0,1.12-.254.906.906,0,0,0-.237-1.2Z" transform="translate(3.618)" fill="#fff"/>
          <path id="Stroke_3" data-name="Stroke 3" d="M25.924,6.661A15.563,15.563,0,0,0,13.635.015a15.419,15.419,0,0,0-13.5,6.7.761.761,0,0,0,.2,1.075.805.805,0,0,0,1.1-.2,13.822,13.822,0,0,1,12.12-6.031A13.973,13.973,0,0,1,24.593,7.5a.8.8,0,0,0,1.1.229.761.761,0,0,0,.235-1.069Z" transform="translate(0 4.426)" fill="#fff"/>
          <path id="Stroke_5" data-name="Stroke 5" d="M2.436,17.246c-1.5-4.8-.961-8.813,1.216-11.685a10.312,10.312,0,0,1,8.193-3.976A10.353,10.353,0,0,1,22.292,11.854a2.961,2.961,0,0,1-5.922,0H14.783v.11h1.588a4.541,4.541,0,0,0-4.545-4.537,4.608,4.608,0,0,0-4.543,4.5,10.958,10.958,0,0,0,1.566,5.71,11.89,11.89,0,0,0,7.012,5.388.793.793,0,1,0,.466-1.515,10.307,10.307,0,0,1-6.107-4.673A9.4,9.4,0,0,1,8.868,12a3.025,3.025,0,0,1,2.958-2.991,2.954,2.954,0,0,1,2.957,2.952.794.794,0,0,0,1.588,0v-.11a.794.794,0,0,0-1.588,0,4.549,4.549,0,0,0,9.1,0A11.937,11.937,0,0,0,11.844,0,11.9,11.9,0,0,0,2.386,4.6C-.116,7.9-.728,12.446.92,17.718a.794.794,0,0,0,1.516-.472Z" transform="translate(1.447 7.926)" fill="#fff"/>
          <path id="Stroke_7" data-name="Stroke 7" d="M5.579,18.031a13.451,13.451,0,0,1-3.837-7.615c-.519-3.433.471-6.224,3.1-7.79A6.693,6.693,0,0,1,15.034,8.565a.805.805,0,1,0,1.61,0A8.3,8.3,0,0,0,4.024,1.235C.766,3.174-.458,6.626.151,10.659a15.03,15.03,0,0,0,4.382,8.6.8.8,0,0,0,1.135-.089.811.811,0,0,0-.089-1.14Z" transform="translate(5.065 11.529)" fill="#fff"/>
          <path id="Stroke_9" data-name="Stroke 9" d="M0,.754A8.185,8.185,0,0,0,2.9,6.992c1.7,1.368,4.17,1.9,7.236,1.551a.787.787,0,0,0,.714-.864A.809.809,0,0,0,9.941,7c-2.649.3-4.671-.134-5.988-1.194A6.681,6.681,0,0,1,1.636.8.8.8,0,0,0,.844,0,.8.8,0,0,0,0,.754Z" transform="translate(12.302 18.734)" fill="#fff"/>
        </g>
        <g id="LUPA" transform="translate(0 14.377) rotate(-16)">
          <path id="Fill_1-2" data-name="Fill 1" d="M26.079,56.49a24.21,24.21,0,0,1-10.151-2.22,25.983,25.983,0,0,1-8.289-6.053,28.387,28.387,0,0,1-5.589-8.978,30.513,30.513,0,0,1,0-21.988A28.389,28.389,0,0,1,7.638,8.273,25.983,25.983,0,0,1,15.928,2.22a24.321,24.321,0,0,1,20.3,0,25.983,25.983,0,0,1,8.289,6.053,28.388,28.388,0,0,1,5.589,8.978,30.514,30.514,0,0,1,0,21.988,28.387,28.387,0,0,1-5.589,8.978A25.983,25.983,0,0,1,36.23,54.27,24.211,24.211,0,0,1,26.079,56.49Zm0-50.444a20.384,20.384,0,0,0-5.448.759A20.027,20.027,0,0,0,26.079,46.15,20.315,20.315,0,0,0,44.924,33.282,19.8,19.8,0,0,0,46.283,26.1,20.151,20.151,0,0,0,26.079,6.045Z" transform="translate(0.001 0)" fill="#006f7d"/>
          <path id="Fill_3-2" data-name="Fill 3" d="M26.1,51.767h0c-.371,0-.748-.008-1.119-.023A26.078,26.078,0,0,1,6.877,43.4,25.744,25.744,0,0,1,8.054,7.18,26.1,26.1,0,0,1,26.06,0c.371,0,.749.008,1.121.024a26.08,26.08,0,0,1,18.1,8.346,25.745,25.745,0,0,1-1.176,36.217A26.05,26.05,0,0,1,26.1,51.767ZM26.081,6.046a20.387,20.387,0,0,0-5.449.759,20.027,20.027,0,0,0,5.449,39.346A20.317,20.317,0,0,0,44.926,33.283,19.832,19.832,0,0,0,46.284,26.1,20.151,20.151,0,0,0,26.081,6.046Z" transform="translate(0 0)" fill="#368896"/>
          <path id="Fill_1-3" data-name="Fill 1" d="M20.25,0a20.39,20.39,0,0,0-5.46.76,20.051,20.051,0,0,0,5.46,39.4A20.233,20.233,0,0,0,39.137,27.273,19.839,19.839,0,0,0,40.5,20.078,20.165,20.165,0,0,0,20.25,0" transform="translate(5.884 6.01)" fill="rgba(58,213,241,0.2)"/>
          <path id="Fill_1-4" data-name="Fill 1" d="M6.308,3.13a3.154,3.154,0,1,0-3.154,3.13A3.142,3.142,0,0,0,6.308,3.13" transform="translate(19.526 13.511)" fill="rgba(255,255,255,0.5)"/>
          <path id="Fill_4" data-name="Fill 4" d="M1.5.745a.751.751,0,1,0-.751.745A.748.748,0,0,0,1.5.745" transform="translate(25.587 11.766)" fill="rgba(255,255,255,0.5)"/>
          <path id="Fill_1-5" data-name="Fill 1" d="M0,2.4A2.117,2.117,0,0,1,.736.66,3.768,3.768,0,0,1,4.913.6a2.129,2.129,0,0,1,.822,1.8V12.995c0,1.08-.61,1.955-1.363,1.955H1.363C.61,14.95,0,14.074,0,12.995Z" transform="translate(24.363 53.291)" fill="#b7b9b9"/>
          <path id="Fill_4-2" data-name="Fill 4" d="M0,16.208C0,2.583,2.726,0,7.272,0s7.271,2.583,7.271,16.208S11.818,32.415,7.272,32.415,0,29.832,0,16.208" transform="translate(19.526 60.699)" fill="#368896"/>
          <path id="Fill_7" data-name="Fill 7" d="M7.272,12.749C3.141,12.749.514,10.613.068,0,.023,1.066,0,2.215,0,3.458,0,17.083,2.726,19.666,7.272,19.666s7.272-2.583,7.272-16.208c0-1.244-.023-2.393-.068-3.458-.445,10.613-3.072,12.749-7.2,12.749" transform="translate(19.526 73.448)" fill="#006f7d"/>
        </g>
      </g>
    </g>
  </g>
</svg>
