<svg xmlns="http://www.w3.org/2000/svg" width="35.073" height="31.764" viewBox="0 0 35.073 31.764">
  <g id="no-aplica" transform="translate(-2.5 -3.6)">
    <g id="XMLID_126_" transform="translate(2.5 3.6)">
      <path id="XMLID_127_" d="M30.294,29.409a5.911,5.911,0,0,1-1.489,4.3,5.893,5.893,0,0,1-4.632,1.654H8.621A6.13,6.13,0,0,1,3.989,33.71a5.911,5.911,0,0,1-1.489-4.3V9.887A6.13,6.13,0,0,1,4.154,5.254,5.522,5.522,0,0,1,8.621,3.6H24.173A5.522,5.522,0,0,1,28.64,5.254a5.988,5.988,0,0,1,1.654,4.467ZM28.474,9.887a4.212,4.212,0,0,0-.993-3.143,4.043,4.043,0,0,0-3.309-1.158H8.621A4.265,4.265,0,0,0,5.312,6.743,4.212,4.212,0,0,0,4.32,9.887V29.574c0,2.812,1.489,4.3,4.3,4.3H24.173c2.812,0,4.3-1.489,4.3-4.3V9.887Zm-4.3,2.316H8.787c-.331,0-.5,0-.662-.165a.661.661,0,0,1-.331-.662c0-.662.331-.827.993-.827H24.173c.662,0,.993.331.993.827a.86.86,0,0,1-.331.662A1,1,0,0,1,24.173,12.2Zm0,5.625H8.787a.877.877,0,0,1-.993-.993c0-.662.331-.827.993-.827H24.173c.662,0,.993.331.993.827A.877.877,0,0,1,24.173,17.828Z" transform="translate(-2.5 -3.6)" fill="#b6b7b7"/>
    </g>
    <path id="XMLID_125_" d="M22.144,16.22H6.593a.877.877,0,0,1-.993-.993c0-.662.331-.827.993-.827H21.979c.662,0,.993.331.993.827C23.137,16.054,22.806,16.22,22.144,16.22Z" transform="translate(2.029 7.068)" fill="#b6b7b7"/>
    <path id="XMLID_124_" d="M22.144,19.52H6.593a.877.877,0,0,1-.993-.993c0-.662.331-.827.993-.827H21.979c.662,0,.993.331.993.827C23.137,19.189,22.806,19.52,22.144,19.52Z" transform="translate(2.029 9.227)" fill="#b6b7b7"/>
    <g id="XMLID_116_" transform="translate(21.029 14.188)">
      <g id="XMLID_118_">
        <g id="XMLID_120_">
          <path id="XMLID_121_" d="M21.972,26.544c-2.647,0-4.8-.662-6.121-1.985C14.362,23.07,13.7,21.084,13.7,18.272s.662-4.8,2.151-6.287C17.174,10.662,19.325,10,21.972,10s4.8.662,6.121,1.985c1.489,1.489,2.151,3.474,2.151,6.287s-.662,4.8-2.151,6.287C26.77,25.882,24.619,26.544,21.972,26.544Zm0-15.717a8.039,8.039,0,0,0-5.46,1.82c-1.324,1.158-1.985,3.143-1.985,5.625A7.522,7.522,0,0,0,16.512,23.9a7.47,7.47,0,0,0,5.46,1.82,7.47,7.47,0,0,0,5.46-1.82c1.324-1.158,1.985-3.143,1.985-5.625a7.522,7.522,0,0,0-1.985-5.625A8.039,8.039,0,0,0,21.972,10.827Z" transform="translate(-13.7 -10)" fill="#b6b7b7"/>
        </g>
        <path id="XMLID_119_" d="M21.645,10.5a8.039,8.039,0,0,0-5.46,1.82c-1.324,1.158-1.985,3.143-1.985,5.625a7.522,7.522,0,0,0,1.985,5.625,7.47,7.47,0,0,0,5.46,1.82,7.47,7.47,0,0,0,5.46-1.82c1.324-1.158,1.985-3.143,1.985-5.625A7.522,7.522,0,0,0,27.1,12.32,8.039,8.039,0,0,0,21.645,10.5Z" transform="translate(-13.373 -9.673)" fill="#fff"/>
      </g>
      <path id="XMLID_13_" d="M24.374,19.25a.8.8,0,0,1,0,1.158.86.86,0,0,1-.662.331c-.331,0-.5-.165-.5-.331l-2.647-2.647-2.647,2.647a.86.86,0,0,1-.662.331,1.254,1.254,0,0,1-.662-.331.8.8,0,0,1,0-1.158L19.245,16.6,16.6,13.956A.819.819,0,0,1,17.756,12.8L20.4,15.445,23.05,12.8a.819.819,0,0,1,1.158,1.158L21.727,16.6Z" transform="translate(-11.966 -8.331)" fill="#b6b7b7"/>
    </g>
  </g>
</svg>
