<?xml version="1.0" encoding="UTF-8"?>
<svg width="133px" height="115px" viewBox="0 0 133 115" version="1.1" xmlns="http://www.w3.org/2000/svg" xmlns:xlink="http://www.w3.org/1999/xlink">
    <!-- Generator: Sketch 52.6 (67491) - http://www.bohemiancoding.com/sketch -->
    <title>not-permission</title>
    <desc>Created with Sketch.</desc>
    <g id="-------Plan" stroke="none" stroke-width="1" fill="none" fill-rule="evenodd">
        <g id="Details/plans-style" transform="translate(-3167.000000, -5468.000000)">
            <g id="Group-10-Copy-3" transform="translate(3033.000000, 5422.000000)">
                <g id="not-permission" transform="translate(134.000000, 46.000000)">
                    <g>
                        <path d="M85.523256,101.024537 C85.613696,105.931546 93.32344,107.154844 100.4948,106.987982 C106.052072,106.860444 117.214496,105.365066 117.214496,100.579218 C117.214496,97.078311 116.302648,95.5552996 112.393512,94.7358705 C110.048456,94.243788 92.313704,91.9417344 87.96088,95.3512394 C86.456384,96.5298994 85.473248,98.324991 85.523256,101.024537" id="Fill-1" fill="#E7EFF5"></path>
                        <path d="M58.8552664,73.2273993 L106.845922,72.7948343 C120.623658,72.563141 123.237906,69.1844576 123.142146,63.3389845 C122.984674,53.8087378 109.275034,54.3571494 109.80065,54.3220766 C109.738938,54.3210138 109.684674,54.3114485 109.62509,54.3093228 C103.252794,54.160529 101.99621,52.3696886 101.99621,49.4660827 C101.99621,46.430688 103.35281,44.609026 110.505018,44.609026 C111.595618,44.609026 112.536194,44.6557898 113.373562,44.7376264 C113.419314,44.7323123 113.671482,44.7280611 114.329034,44.7301867 C114.602482,44.7195586 114.91317,44.7099933 115.20577,44.705742 C115.62605,44.6983023 116.039946,44.6983023 116.420858,44.7046792 C129.646378,44.3762699 132.106346,41.0145915 132.046762,35.2583947 C131.994626,30.1016247 129.896418,26.4211023 119.944826,26.4211023 L52.3478424,28.3447943 L58.8552664,73.2273993 Z" id="Fill-3" fill="#E7EFF5"></path>
                        <path d="M113.498476,44.7503802 C113.534652,44.7546314 113.571892,44.7578199 113.608068,44.7620711 C113.629348,44.7599455 113.6485,44.7578199 113.66978,44.756757 C113.607004,44.7546314 113.549548,44.7525058 113.498476,44.7503802" id="Fill-5" fill="#E1F4F4"></path>
                        <path d="M132.665585,16.3938841 C132.611321,13.8048709 127.968025,13.1608061 123.648185,13.2479568 C120.301905,13.3159768 113.579553,14.1045843 113.579553,16.6287658 C113.579553,18.4748725 114.128577,19.2772965 116.483209,19.7098615 C117.895137,19.969188 128.575569,21.1839836 131.197265,19.3846407 C132.102729,18.7639577 132.695377,17.8169911 132.665585,16.3938841" id="Fill-7" fill="#E7EFF5"></path>
                        <path d="M83.5849672,18.985448 L28.7815192,19.418013 C13.0470872,19.6497063 10.0604392,23.0283897 10.1710952,28.8749256 C10.3498472,38.4041095 26.0066072,37.8556978 25.4065112,37.8907707 C25.4767352,37.8928963 25.5384472,37.9013988 25.6065432,37.9035244 C32.8843032,38.0523183 34.3175112,39.8431587 34.3175112,42.7467646 C34.3175112,45.7821593 32.7693912,47.6038213 24.6010632,47.6038213 C23.3561832,47.6038213 22.2815432,47.5570575 21.3260712,47.4752209 C21.2739352,47.4815977 20.9855912,47.4847862 20.2354712,47.4826606 C19.9226552,47.4932887 19.5683432,47.502854 19.2331832,47.5071053 C18.7533192,47.514545 18.2819672,47.514545 17.8457272,47.5081681 C2.7433112,47.8365774 -0.0656488,51.1982558 0.0013832,56.9544525 C0.0609672,62.1112226 2.4570952,65.791745 13.8227432,65.791745 L91.0159432,63.8691158 L83.5849672,18.985448 Z" id="Fill-9" fill="#E7EFF5"></path>
                        <path d="M21.1829632,47.4624671 C21.1414672,47.4592787 21.0989072,47.4550274 21.0584752,47.451839 C21.0329392,47.4529018 21.0116592,47.4550274 20.9871872,47.4560902 C21.0584752,47.4582159 21.1244432,47.4603415 21.1829632,47.4624671" id="Fill-11" fill="#E1F4F4"></path>
                        <path d="M113.662651,81.1974361 C111.211195,79.8869873 109.807779,79.7679522 108.843795,81.5683579 C107.878747,83.366638 108.754419,84.4677126 111.205875,85.780287 C113.658395,87.0907357 115.060747,87.208708 116.025795,85.4093651 C116.989779,83.6110851 116.115171,82.5089477 113.662651,81.1974361" id="Fill-15" fill="#FF7C9A"></path>
                        <path d="M48.0464096,91.817279 C48.0464096,91.817279 42.7891856,84.4562342 43.0200736,82.7429792 C43.2520256,81.0297242 44.1777056,27.0632541 44.1777056,27.0632541 L50.8926096,20.0136136 L85.6226336,18.9252928 L93.9154496,24.0650578 L96.7371776,64.967427 C96.7371776,64.967427 92.3375376,90.6131115 90.4851136,91.817279 C88.6337536,93.0225092 48.0464096,91.817279 48.0464096,91.817279" id="Fill-19" fill="#FFFFFF"></path>
                        <path d="M44.1779184,26.9970408 C44.1779184,26.9970408 44.1587664,27.8079673 44.1257824,29.9335939 L93.8007504,29.9335939 L93.8007504,24.064739 L85.5653904,18.9249739 L50.8640944,19.9803475 L44.1779184,26.9970408 Z" id="Fill-23" fill="#E7EFF5"></path>
                        <path d="M89.8816128,90.5136322 L49.8177568,90.5136322 C47.6376208,90.5136322 45.8320128,89.0937137 45.7330608,86.9181349 C45.4585488,80.8526595 45.4574848,73.2461048 45.4574848,63.5224261 C45.4574848,41.8420979 45.4574848,29.9704735 48.4696688,24.7339925 C51.1764848,20.0299809 56.9774128,20.0650537 69.6868928,20.0650537 C82.3953088,20.0650537 88.1962368,20.0831216 90.9019888,24.788196 C93.9163008,30.024677 93.9163008,41.9770752 93.9163008,63.6563405 C93.9163008,73.5575091 93.9141728,81.1311165 93.6237008,87.2454814 C93.5290048,89.2371935 91.8787408,90.5136322 89.8816128,90.5136322 M69.6868928,16.1666546 C41.5164288,16.1666546 41.5164288,17.9511181 41.5164288,63.6659059 C41.5164288,109.256344 41.5164288,111.036557 69.6868928,111.036557 C97.8562928,111.036557 97.8562928,109.256344 97.8562928,63.6659059 C97.8562928,17.9511181 97.8562928,16.1666546 69.6868928,16.1666546" id="Fill-25" fill="#D3D5D4"></path>
                        <path d="M49.8179696,90.5136322 C47.6378336,90.5136322 45.8311616,89.0937137 45.7332736,86.9181349 C45.4587616,80.8526595 45.4566336,73.2461048 45.4566336,63.5224261 C45.4566336,41.8420979 45.4566336,29.9704735 48.4698816,24.7339925 C51.1766976,20.0299809 56.9776256,20.0650537 69.6860416,20.0650537 C81.3283296,20.0650537 87.1643696,20.0916241 90.1435696,23.7115661 L92.0300416,19.9396418 C88.0049296,16.466368 81.1985216,16.1666546 69.6860416,16.1666546 C41.5166416,16.1666546 41.5166416,17.9511181 41.5166416,63.6659059 C41.5166416,91.7188625 41.5198336,103.180241 48.0825856,107.850242 L56.7488656,90.5136322 L49.8179696,90.5136322 Z" id="Fill-27" fill="#B7B9B9"></path>
                        <path d="M64.1284504,101.231041 C64.1284504,97.294381 66.2351704,95.4652793 69.8740504,95.4652793 C73.5139944,95.4652793 75.6207144,97.294381 75.6207144,101.231041 C75.6207144,105.167702 73.5139944,106.996803 69.8740504,106.996803 C66.2351704,106.996803 64.1284504,105.167702 64.1284504,101.231041" id="Fill-29" fill="#FFFFFF"></path>
                        <path d="M66.75004,101.231041 C66.75004,99.0905354 67.895968,98.096805 69.875008,98.096805 C71.852984,98.096805 72.998912,99.0905354 72.998912,101.231041 C72.998912,103.371547 71.852984,104.365278 69.875008,104.365278 C67.895968,104.365278 66.75004,103.371547 66.75004,101.231041" id="Fill-31" fill="#B7B9B9"></path>
                        <path d="M51.56676,96.1027547 C51.313528,96.1091316 51.039016,96.1091316 50.760248,96.1016919 C50.564472,96.0963778 50.35912,96.0857497 50.177176,96.0751216 C49.740936,96.0772472 49.57176,96.0708703 49.541968,96.0634306 C48.98656,96.1516441 48.360928,96.1973451 47.637408,96.1973451 C42.885584,96.1973451 41.984376,94.2555852 41.984376,91.0320725 C41.984376,87.9467256 42.818552,86.0304732 47.052208,85.872114 C47.091576,85.8699884 47.127752,85.8306643 47.168184,85.8285387 C46.820256,85.792403 55.441848,85.6499861 56.031304,75.5447574 C56.678216,64.487248 40.42136,65.1440666 40.42136,65.1440666 C40.403272,65.1876419 27.745928,97.9658664 21.823704,114.564884 L53.90756,114.564884 C60.519256,114.564884 61.913096,111.135186 61.948208,105.657446 C61.986512,99.5430813 60.352208,96.4513575 51.56676,96.1027547" id="Fill-33" fill="#FFFFFF"></path>
                        <path d="M49.6258112,96.0550344 C49.6492192,96.0507831 49.6747552,96.0465319 49.6981632,96.0422806 C49.7130592,96.0444063 49.7247632,96.0465319 49.7396592,96.0486575 C49.6970992,96.0497203 49.6598592,96.0518459 49.6258112,96.0550344" id="Fill-35" fill="#FFFFFF"></path>
                        <path d="M101.367918,75.4692976 C101.343446,75.4661092 101.318974,75.4618579 101.295566,75.4576067 C101.28067,75.4586695 101.267902,75.4618579 101.25407,75.4629207 C101.295566,75.4650464 101.33387,75.467172 101.367918,75.4692976" id="Fill-37" fill="#FFFFFF"></path>
                        <path d="M67.5053233,3.00155617 C67.2627313,1.07998976 67.4478673,0.150028134 68.5331473,0.0139880334 C69.6194913,-0.122052067 70.0291313,0.732449813 70.2717233,2.65401623 C70.5132513,4.57451983 70.3291793,5.50448145 69.2428353,5.64158437 C68.1575553,5.77762447 67.7479153,4.92312259 67.5053233,3.00155617" id="Fill-41" fill="#FF406F"></path>
                        <path d="M86.9025331,4.27427073 C88.1878451,2.8235306 89.0081891,2.34845306 89.8285331,3.07222891 C90.6478131,3.79706757 90.2743491,4.66857446 88.9901011,6.11825178 C87.7058531,7.57005472 86.8855091,8.04513226 86.0651651,7.3202936 C85.2448211,6.59651776 85.6182851,5.72394805 86.9025331,4.27427073" id="Fill-44" fill="#FF7C9A"></path>
                        <path d="M53.4862089,3.86808714 C55.0173049,5.05524958 55.5461129,5.84279422 54.8747289,6.70792423 C54.2033449,7.57092862 53.3085209,7.25633589 51.7774249,6.06811064 C50.2463289,4.8809482 49.7175209,4.09234074 50.3889049,3.22827354 C51.0602889,2.36526916 51.9551129,2.6809247 53.4862089,3.86808714" id="Fill-46" fill="#FF7C9A"></path>
                        <path d="M99.3669241,13.245295 C101.304468,13.1985312 102.213124,13.4759254 102.239724,14.5684975 C102.266324,15.6610696 101.372564,15.9820392 99.4339561,16.0298658 C97.4964121,16.0766295 96.5888201,15.7992353 96.5622201,14.7066632 C96.5356201,13.6140912 97.4293801,13.2931216 99.3669241,13.245295" id="Fill-48" fill="#FF406F"></path>
                        <path d="M42.09686,15.0951145 C44.031212,15.2173381 44.912204,15.5733805 44.84198,16.6648898 C44.77282,17.7553362 43.854588,17.9965948 41.919172,17.8733085 C39.985884,17.7510849 39.104892,17.3950425 39.175116,16.3045961 C39.244276,15.212024 40.162508,14.9718282 42.09686,15.0951145" id="Fill-50" fill="#FF406F"></path>
                        <path d="M29.887228,73.2284621 C26.98038,73.2603465 25.646124,74.8290589 25.675916,77.5105368 C25.706772,80.1930775 27.075076,81.7299055 29.981924,81.6980211 C32.889836,81.6640111 34.223028,80.0974243 34.193236,77.4148836 C34.163444,74.7323429 32.794076,73.1955149 29.887228,73.2284621" id="Fill-52" fill="#FF406F"></path>
                        <path d="M39.1629672,108.509824 C35.6645352,110.573808 35.4123672,111.65894 36.0965192,112.816344 C36.7806712,113.973747 37.8542472,114.276649 41.3526792,112.211603 C44.8511112,110.14762 45.1032792,109.062487 44.4191272,107.905084 C43.7349752,106.748743 42.6613992,106.445841 39.1629672,108.509824" id="Fill-54" fill="#FF406F"></path>
                        <g id="Group-5" opacity="0.900000036" transform="translate(55.160894, 35.138889)">
                            <path d="M15.0971397,0.421244373 C23.2975918,0.421244373 29.9453144,7.18107024 29.9453144,15.520273 C29.9453144,23.8590127 23.2975918,30.6188385 15.0971397,30.6188385 C6.89668767,30.6188385 0.248509589,23.8590127 0.248509589,15.520273 C0.248509589,7.18107024 6.89668767,0.421244373 15.0971397,0.421244373" id="Fill-264" fill="#FFDD67"></path>
                            <path d="M10.4335767,8.5702272 C8.83211096,9.94488723 6.71003219,10.5233746 4.64625479,10.1468252 C4.3602137,10.0898564 4.10787808,11.1643885 4.4554089,11.23201 C6.83574452,11.6664544 9.28440205,10.9999666 11.1336486,9.41271594 C11.4014705,9.17650415 10.6526623,8.37569983 10.4335767,8.5702272" id="Fill-266" fill="#917524"></path>
                            <path d="M25.546886,10.0704963 C23.4840195,10.4465826 21.3619408,9.86902156 19.760475,8.4934352 C19.5409339,8.29798152 18.7925812,9.10017531 19.061314,9.33638711 C20.9087387,10.9222483 23.3573962,11.5901256 25.7390983,11.1556811 C26.0875401,11.0875965 25.833838,10.0135276 25.546886,10.0704963" id="Fill-268" fill="#917524"></path>
                            <path d="M22.306514,20.7523644 C22.041425,20.4355627 21.5476853,20.3660886 21.2074421,20.5967425 L19.1063154,22.0265186 C18.7665277,22.2576356 18.2354387,22.2247512 17.9261682,21.9528761 L15.658336,19.9668443 C15.3490654,19.6958955 14.8430277,19.6963587 14.5337572,19.9673075 L12.2754901,21.9491708 C11.965764,22.2196565 11.435586,22.253004 11.0957983,22.0228133 L8.98601747,20.5897951 C8.64622979,20.3591412 8.15203459,20.4295416 7.88785651,20.7458801 L5.67878116,23.3886733 C5.41460308,23.7045487 5.49021267,23.7994966 5.84776404,23.5989481 L7.71659623,22.5508162 C8.0741476,22.3507309 8.60569212,22.4234471 8.89810993,22.7133855 L11.1882606,24.9865766 C11.4802229,25.276515 11.9848942,25.3075468 12.3091955,25.0551244 L14.5187264,23.3335572 C14.8425723,23.0811348 15.3736613,23.0811348 15.6979627,23.3335572 L17.8970175,25.0458612 C18.2213188,25.2982836 18.7255346,25.2672518 19.0179524,24.9768503 L21.2948942,22.7152381 C21.5868565,22.4248365 22.1179455,22.351194 22.4759524,22.5512793 L24.346151,23.5994113 C24.7041579,23.7994966 24.7797675,23.7050118 24.5146784,23.3886733 L22.306514,20.7523644 Z" id="Fill-270" fill="#664E27"></path>
                            <path d="M24.8325575,13.5546204 C25.111311,13.7232107 24.9801329,14.0701179 24.7501158,14.1053181 C23.4169274,14.3081823 22.0044856,14.5388362 20.6635541,15.2933244 C22.6539993,15.6291157 24.2522767,16.6670582 25.1190541,17.7239902 C25.3153658,17.9625178 25.0698623,18.2858037 24.8512322,18.2047507 C22.4891158,17.3330828 20.0600438,16.8606592 17.0074205,17.1797767 C16.7669274,17.2052505 16.5605952,17.0635235 16.6111534,16.8388907 C17.4264616,13.212808 22.0126842,11.8446322 24.8325575,13.5546204" id="Fill-272" fill="#664E27"></path>
                            <path d="M5.36144863,13.5546204 C5.08269521,13.7232107 5.21387329,14.0701179 5.44389041,14.1053181 C6.77707877,14.3081823 8.18997603,14.5388362 9.53045205,15.2933244 C7.54000685,15.6291157 5.94172945,16.6670582 5.07495205,17.7239902 C4.87864041,17.9625178 5.12414384,18.2858037 5.34277397,18.2047507 C7.70489041,17.3330828 10.1339623,16.8606592 13.1865856,17.1797767 C13.4270788,17.2052505 13.633411,17.0635235 13.5828527,16.8388907 C12.768,13.212808 8.1817774,11.8446322 5.36144863,13.5546204" id="Fill-274" fill="#664E27"></path>
                        </g>
                        <path d="M84.5319228,74.9474491 L56.2246708,74.9474491 C55.2895771,74.9474491 54.5317654,74.0695653 54.5317654,72.9876214 L54.5317654,72.4647173 C54.5317654,71.3827733 55.2895771,70.5059524 56.2246708,70.5059524 L84.5319228,70.5059524 C85.4670165,70.5059524 86.2248282,71.3827733 86.2248282,72.4647173 L86.2248282,72.9876214 C86.2248282,74.0695653 85.4670165,74.9474491 84.5319228,74.9474491" id="Fill-21" fill="#E7EFF5"></path>
                        <path d="M84.5319228,83.8462586 L56.2246708,83.8462586 C55.2895771,83.8462586 54.5317654,82.9683748 54.5317654,81.8864309 L54.5317654,81.3635268 C54.5317654,80.2815829 55.2895771,79.4047619 56.2246708,79.4047619 L84.5319228,79.4047619 C85.4670165,79.4047619 86.2248282,80.2815829 86.2248282,81.3635268 L86.2248282,81.8864309 C86.2248282,82.9683748 85.4670165,83.8462586 84.5319228,83.8462586" id="Fill-21" fill="#E7EFF5"></path>
                    </g>
                </g>
            </g>
        </g>
    </g>
</svg>