<svg id="not-permission" xmlns="http://www.w3.org/2000/svg" width="366.713" height="237.902" viewBox="0 0 366.713 237.902">
  <g id="Fail---M" transform="translate(0 0)">
    <g id="not-permission-2" data-name="not-permission" transform="translate(0 0)">
      <g id="Group_157" data-name="Group 157" transform="translate(0 0)">
        <path id="Fill-1" d="M57.5,96.584c.228,12.322,19.633,15.394,37.682,14.974,13.987-.32,42.082-4.075,42.082-16.092,0-8.791-2.3-12.615-12.134-14.673-5.9-1.235-50.539-7.016-61.495,1.545-3.787,2.96-6.261,7.467-6.135,14.246" transform="translate(93.425 126.307)" fill="#e7eff5" fill-rule="evenodd"/>
        <path id="Fill-3" d="M79.666,142.4l120.788-1.086c34.679-.582,41.256-9.066,41.017-23.744-.4-23.931-34.9-22.553-33.581-22.642-.155,0-.291-.027-.441-.032-16.037-.374-19.2-4.871-19.2-12.161,0-7.622,3.415-12.2,21.416-12.2,2.745,0,5.113.118,7.218.323.115-.013.751-.024,2.407-.019.688-.027,1.47-.051,2.2-.061,1.058-.019,2.1-.019,3.061,0,33.287-.824,39.477-9.266,39.327-23.72-.131-12.949-5.412-22.191-30.458-22.191L63.288,29.7Z" transform="translate(102.828 40.413)" fill="#e7eff5" fill-rule="evenodd"/>
        <path id="Fill-5" d="M115.546,42.811c.092.011.186.019.278.029.052-.005.1-.011.155-.013l-.433-.016" transform="translate(187.736 69.558)" fill="#e1f4f4" fill-rule="evenodd"/>
        <path id="Fill-7" d="M163.663,20.585c-.136-6.5-11.825-8.118-22.7-7.9-8.423.171-25.342,2.151-25.342,8.489,0,4.636,1.383,6.651,7.31,7.737,3.551.651,30.434,3.7,37.033-.817a8.315,8.315,0,0,0,3.7-7.51" transform="translate(187.863 20.58)" fill="#e7eff5" fill-rule="evenodd"/>
        <path id="Fill-9" d="M210.375,18.176,72.44,19.263c-39.6.582-47.119,9.066-46.841,23.747.45,23.928,39.856,22.551,38.346,22.639.177.006.332.027.5.032,18.318.374,21.925,4.871,21.925,12.162,0,7.622-3.9,12.2-24.456,12.2-3.133,0-5.838-.117-8.243-.323-.131.016-.857.024-2.745.019-.787.027-1.679.051-2.523.061-1.208.019-2.394.019-3.492,0C6.9,90.622-.166,99.063,0,113.517c.15,12.949,6.181,22.19,34.787,22.19l194.288-4.828Z" transform="translate(0 29.533)" fill="#e7eff5" fill-rule="evenodd"/>
        <g id="Group-2" transform="translate(80.384 63.893)">
          <path id="Fill-39" d="M28.322.092C7.864,1.282-1.007,12.784.09,31.7S11.333,61,31.791,59.81s29.328-12.692,28.231-31.6S48.781-1.1,28.322.092" transform="translate(0 0)" fill="#ff406f" fill-rule="evenodd"/>
          <path id="Fill-41" d="M24.139,7.908c-.1.167-16.026,24.657-16.119,24.816-1.728,2.918-1.884,4.7.3,6.126,2.142,1.395,3.64.563,5.445-2.129.14-.208,16.1-24.756,16.245-24.986,2-3.21,2.3-5.114-.006-6.616S26.14,4.7,24.139,7.908" transform="translate(10.891 7.235)" fill="#fff" fill-rule="evenodd"/>
          <path id="Fill-43" d="M8.409,13.375c.151.137,22.033,20.741,22.178,20.865,2.636,2.281,4.4,2.747,6.219.731,1.775-1.972,1.2-3.659-1.2-5.981C35.423,28.81,13.489,8.151,13.281,7.964,10.4,5.35,8.534,4.719,6.621,6.842s-1.094,3.921,1.788,6.533" transform="translate(9.076 9.044)" fill="#fff" fill-rule="evenodd"/>
        </g>
        <path id="Fill-11" d="M27.33,45.422l-.313-.027c-.064,0-.118.008-.18.011l.493.016" transform="translate(43.604 73.757)" fill="#e1f4f4" fill-rule="evenodd"/>
        <path id="Fill-15" d="M111.22,74.247c-6.168-3.29-9.7-3.589-12.128.932s-.225,7.28,5.946,10.576,9.7,3.587,12.129-.932.226-7.283-5.948-10.576" transform="translate(159.431 116.624)" fill="#ff7c9a" fill-rule="evenodd"/>
        <path id="Fill-37" d="M104.091,72.216c-.06-.008-.121-.019-.181-.029-.037,0-.068.011-.1.013l.286.016" transform="translate(168.66 117.288)" fill="#fff" fill-rule="evenodd"/>
        <path id="Fill-41-2" data-name="Fill-41" d="M71.591,7.537c-.611-4.825-.145-7.16,2.587-7.5s3.765,1.8,4.376,6.629.145,7.158-2.59,7.5-3.763-1.8-4.373-6.629" transform="translate(115.933 0)" fill="#ff406f" fill-rule="evenodd"/>
        <path id="Fill-44" d="M92.026,6.477c3.235-3.643,5.3-4.836,7.365-3.018s1.122,4.008-2.11,7.649-5.3,4.838-7.362,3.018-1.125-4.008,2.107-7.649" transform="translate(144.318 4.256)" fill="#ff7c9a" fill-rule="evenodd"/>
        <path id="Fill-46" d="M63.272,5.457c3.853,2.981,5.184,4.959,3.495,7.131s-3.942,1.377-7.8-1.607S53.787,6.02,55.476,3.85s3.942-1.374,7.8,1.607" transform="translate(88.966 4.256)" fill="#ff7c9a" fill-rule="evenodd"/>
        <path id="Fill-48" d="M106.367,12.679c4.877-.117,7.163.579,7.229,3.323s-2.181,3.549-7.061,3.669-7.161-.579-7.228-3.323,2.183-3.549,7.06-3.669" transform="translate(161.349 20.58)" fill="#ff406f" fill-rule="evenodd"/>
        <path id="Fill-50" d="M51.637,14.486c4.868.307,7.086,1.2,6.909,3.942s-2.485,3.344-7.356,3.034-7.083-1.2-6.907-3.939,2.485-3.347,7.354-3.037" transform="translate(71.935 23.418)" fill="#ff406f" fill-rule="evenodd"/>
        <path id="Fill-52" d="M48.957,64.005c-7.316.08-10.674,4.019-10.6,10.752S41.879,85.353,49.2,85.273s10.674-4.019,10.6-10.755S56.273,63.923,48.957,64.005" transform="translate(62.32 103.992)" fill="#ff406f" fill-rule="evenodd"/>
        <g id="Group-23" transform="translate(125.989 42.159)">
          <g id="Group-3" transform="translate(0 0)">
            <path id="Fill-1-2" data-name="Fill-1" d="M0,72.066c0,39.775,31.639,72,70.7,72s70.7-32.23,70.7-72-31.639-72-70.7-72S0,32.292,0,72.066" transform="translate(0 -0.062)" fill="#ffdd67" fill-rule="evenodd"/>
          </g>
          <path id="Fill-4" d="M12.028,16.413a32.174,32.174,0,0,1,28.723-2.662c1.306.536,3.389-4.558,1.793-5.2A37.09,37.09,0,0,0,9.4,11.625c-1.465.931,1.427,5.558,2.624,4.788" transform="translate(14.623 9.586)" fill="#917524" fill-rule="evenodd"/>
          <path id="Fill-6" d="M35.03,18.414a32.162,32.162,0,0,1,28.722-2.668c1.306.539,3.389-4.554,1.794-5.2A37.113,37.113,0,0,0,32.4,13.628c-1.463.924,1.418,5.551,2.625,4.787" transform="translate(51.993 12.836)" fill="#917524" fill-rule="evenodd"/>
          <path id="Fill-8" d="M20.59,33.533a43.622,43.622,0,0,1,37.031,6.784c2.633,1.958-2.309,9.058-4.926,7.09a35.911,35.911,0,0,0-29.88-5.471c-3.109.846-5.545-7.445-2.225-8.4" transform="translate(30.871 51.831)" fill="#664e27" fill-rule="evenodd"/>
          <path id="Fill-10" d="M49.685,47.122A19.884,19.884,0,0,1,30,27.059a20.2,20.2,0,0,1,3.988-12.065A53.2,53.2,0,0,1,48.577,13a51.911,51.911,0,0,1,17.48,2.917,20.251,20.251,0,0,1,3.315,11.14A19.88,19.88,0,0,1,49.685,47.122" transform="translate(48.743 20.96)" fill="#fff" fill-rule="evenodd"/>
          <path id="Fill-12" d="M48.721,13.135A10.437,10.437,0,0,1,50.373,18.8c0,5.494-4.115,9.951-9.186,9.951S32,24.292,32,18.8a10.493,10.493,0,0,1,.907-4.237A47.648,47.648,0,0,1,45.162,13c1.207,0,2.389.05,3.559.135" transform="translate(51.993 20.96)" fill="#664e27" fill-rule="evenodd"/>
          <path id="Fill-14" d="M28.685,47.122A19.884,19.884,0,0,1,9,27.059a20.2,20.2,0,0,1,3.988-12.065A53.2,53.2,0,0,1,27.578,13a51.915,51.915,0,0,1,17.48,2.917,20.25,20.25,0,0,1,3.314,11.14A19.876,19.876,0,0,1,28.685,47.122" transform="translate(14.623 20.96)" fill="#fff" fill-rule="evenodd"/>
          <path id="Fill-16" d="M27.721,13.135A10.437,10.437,0,0,1,29.373,18.8c0,5.494-4.115,9.951-9.186,9.951S11,24.292,11,18.8a10.493,10.493,0,0,1,.907-4.237A47.648,47.648,0,0,1,24.162,13c1.207,0,2.389.05,3.559.135" transform="translate(17.872 20.96)" fill="#664e27" fill-rule="evenodd"/>
          <path id="Fill-18" d="M66.225,55.813c-10.612,2.653-37.42,5.942-42.378.817-2.219-2.313-1.8-5.782-1.078-11.72.7-5.873-4.812-12.313-8.87-12.838-4.852-.635-7.636,3.027-5.92,8.315,3.773,11.592-3.4,15.327-3.726,23.946-.191,4.994-1.682,13.254,5.59,23.886,8.223,12.025,22.643,12.173,27.608,11.993,5.861-.208,8.316-.437,9.689-3.186,1.517-3.038.822-3.785,1.447-4.888,1.379-2.4,2.071-2.109,2.7-4.822.679-2.957-1.349-4.616-.853-6.055,1.018-3,3.558-2.569,1.009-9.758,8.58-1.343,14.195-2.718,19.258-5.693,9.169-5.372,1.162-11.41-4.476-10" transform="translate(6.499 51.83)" fill="#fff" fill-rule="evenodd"/>
          <g id="Group-22" transform="translate(5.895 84.489)">
            <path id="Fill-20" d="M27.124,69.8C18.282,68.29,11.2,64.153,6.63,57.854-.441,48.086.07,40.288.418,35.131c.036-.582.07-1.131.1-1.64A22.516,22.516,0,0,1,3.149,24.52c1.813-3.9,3.377-7.261,1.275-13.36C3.286,7.846,3.708,4.75,5.589,2.679A8.4,8.4,0,0,1,13,.336c.046.011.316.053.352.058,5.491.94,11.683,8.1,10.834,14.823-.695,5.466-.959,8.109.452,9.491.252.25,1.145.887,3.879,1.356,9.729,1.664,28.96-.9,37-2.8a10.974,10.974,0,0,1,4.336-.093c3.811.653,6.791,2.973,7.424,5.79.372,1.69.19,4.975-5.254,7.993C66.961,39.764,61.5,41.146,54.15,42.322c1.959,4.969-2.863,6.879-1.893,8.729,1.411,2.708,1.009,5.055-1.884,7.676-2.075,1.875.427,3.991-1.522,7.433-2.19,3.879-6.192,4.08-11.893,4.271a48.6,48.6,0,0,1-9.834-.627M7.605,8.19C9.5,16.559,10,19.425,6.721,26.17,2.259,35.349.384,60.828,28.006,65.687c16.784,2.954,19.272-1.073,18.557-5.333-.463-2.745,1.918-3.816,2.451-4.754,1.792-3.134-.844-4.443-.893-5.691-.092-2.342,2.325-2.262,2.706-4.516.695-4.1-4.3-5.493.126-5.807,8.489-.606,14.223-1.963,19.131-5.305,4.59-3.119,1.405-9.241-4.786-7.961-14.476,2.994-35.889,6.635-43.311-.009-3.32-2.971-.653-6.417-.965-13.172C20.6,4.032,5.885.6,7.605,8.19" transform="translate(-0.246 -0.251)" fill="#cccfd4" fill-rule="evenodd"/>
          </g>
        </g>
      </g>
    </g>
  </g>
</svg>
