<svg xmlns="http://www.w3.org/2000/svg" width="35.54" height="32.217" viewBox="0 0 35.54 32.217">
  <g id="paz-y-salvo" transform="translate(0 0)">
    <path id="XMLID_129_" d="M27.654,18.239h-15.6a1.021,1.021,0,0,1-.949-.949c0-.593.3-.89.949-.89h15.6c.653,0,.949.3.949.89a.953.953,0,0,1-.3.653A.756.756,0,0,1,27.654,18.239Z" transform="translate(-5.76 -9.577)" fill="#00a9e0"/>
    <g id="XMLID_116_">
      <g id="XMLID_118_">
        <g id="XMLID_120_">
          <path id="XMLID_130_" d="M35.326,17.478a7.858,7.858,0,0,0-5.162-2.017V11.13A6.1,6.1,0,0,0,28.5,6.561,6.007,6.007,0,0,0,23.934,4.9H8.211A5.869,5.869,0,0,0,3.7,6.561,6.212,6.212,0,0,0,2.1,11.13V30.947A5.986,5.986,0,0,0,3.643,35.4,6.086,6.086,0,0,0,8.27,37.117H23.993A6.086,6.086,0,0,0,28.621,35.4,5.981,5.981,0,0,0,30.1,32.252a8.059,8.059,0,0,0,5.281-2.017c1.483-1.424,2.255-3.56,2.255-6.348Q37.551,19.614,35.326,17.478Zm-11.332,17.8H8.211q-4.272,0-4.272-4.272V11.13a4.817,4.817,0,0,1,1.009-3.2A4.4,4.4,0,0,1,8.211,6.739H23.993a4.044,4.044,0,0,1,3.263,1.187,4.351,4.351,0,0,1,1.068,3.2v4.331A8.431,8.431,0,0,0,23.163,17.3H8.33c-.653,0-.949.3-.949.89a.824.824,0,0,0,.949.949H21.739a9.178,9.178,0,0,0-.949,3.8H8.33c-.653,0-.949.3-.949.89a.824.824,0,0,0,.949.949h12.46a10.45,10.45,0,0,0,.89,3.619H8.33a.92.92,0,1,0,0,1.839H23.044a7.7,7.7,0,0,0,5.162,1.958C27.85,34.21,26.426,35.278,23.993,35.278Zm10.68-5.815a6.669,6.669,0,0,1-4.509,1.78c-.3,0-.653.059-1.009.059h-.831a8.213,8.213,0,0,1-3.857-1.127,4.48,4.48,0,0,1-.831-.653,5.319,5.319,0,0,1-.89-1.068,7.239,7.239,0,0,1-1.009-3.619c0-.3-.059-.653-.059-.949V23a7.967,7.967,0,0,1,1.127-3.8,5.991,5.991,0,0,1,.771-.949,5.666,5.666,0,0,1,.949-.712,8.662,8.662,0,0,1,3.738-1.068H29.1a5.756,5.756,0,0,1,1.009.059,6.669,6.669,0,0,1,4.509,1.78c1.305,1.246,1.958,3.145,1.958,5.637C36.631,26.378,35.978,28.277,34.673,29.463Z" transform="translate(-2.1 -4.9)" fill="#00a9e0"/>
        </g>
      </g>
      <path id="XMLID_133_" d="M42.058,38.088h0a.54.54,0,0,1-.475-.237l-2.67-3.2a.631.631,0,0,1,.059-.831.573.573,0,0,1,.831.059L42,36.6l6.289-6.526a.587.587,0,0,1,.831.831l-6.645,7A.641.641,0,0,1,42.058,38.088Z" transform="translate(-17.02 -15.067)" fill="#00a9e0"/>
    </g>
  </g>
</svg>
