<svg xmlns="http://www.w3.org/2000/svg" width="29.627" height="26.435" viewBox="0 0 29.627 26.435">
  <path id="XMLID_81_" d="M14.417,22.226V17.27H1.2v-3.3H14.28V9.009l6.609,6.609Zm15.42,5.645a3.02,3.02,0,0,1-2.341.964H7.809a3.224,3.224,0,0,1-2.341-.964A3.02,3.02,0,0,1,4.5,25.53V20.574h3.3V25.53H27.5V5.7H7.809v4.957H4.5V5.7a3.224,3.224,0,0,1,.964-2.341A3.02,3.02,0,0,1,7.809,2.4H27.5a3.224,3.224,0,0,1,2.341.964A3.02,3.02,0,0,1,30.8,5.7V25.393A2.873,2.873,0,0,1,29.838,27.871Z" transform="translate(-1.2 -2.4)" fill="#86888c"/>
</svg>
